{
    "asset" : {
        "generator" : "Khronos glTF Blender I/O v1.6.16",
        "version" : "2.0"
    },
    "extensionsUsed" : [
        "KHR_materials_unlit"
    ],
    "scene" : 0,
    "scenes" : [
        {
            "name" : "Scene",
            "nodes" : [
                0,
                1,
                2,
                3
            ]
        }
    ],
    "nodes" : [
        {
            "mesh" : 0,
            "name" : "item",
            "rotation" : [
                0.7071068286895752,
                0,
                0,
                0.7071068286895752
            ],
            "scale" : [
                0.45051127672195435,
                0.4098351001739502,
                1.4515668153762817
            ],
            "translation" : [
                -1.7691795825958252,
                1.4758929014205933,
                2.1683545112609863
            ]
        },
        {
            "mesh" : 1,
            "name" : "grid",
            "scale" : [
                1.3179197311401367,
                1.3179197311401367,
                1.3179197311401367
            ],
            "translation" : [
                0,
                0,
                0.5581023097038269
            ]
        },
        {
            "mesh" : 2,
            "name" : "Cube",
            "rotation" : [
                0,
                -0.07860467582941055,
                0,
                0.9969058632850647
            ],
            "scale" : [
                0.36840811371803284,
                0.36840811371803284,
                0.36840811371803284
            ],
            "translation" : [
                -0.045236602425575256,
                0.3750421702861786,
                0.8384695649147034
            ]
        },
        {
            "mesh" : 3,
            "name" : "hair",
            "rotation" : [
                0,
                -0.07860467582941055,
                0,
                0.9969058632850647
            ],
            "translation" : [
                0.06611219048500061,
                0,
                0.0035668611526489258
            ]
        }
    ],
    "materials" : [
        {
            "doubleSided" : true,
            "extensions" : {
                "KHR_materials_unlit" : {}
            },
            "name" : "item",
            "pbrMetallicRoughness" : {
                "baseColorTexture" : {
                    "index" : 0
                },
                "metallicFactor" : 0,
                "roughnessFactor" : 0.9
            }
        },
        {
            "doubleSided" : true,
            "extensions" : {
                "KHR_materials_unlit" : {}
            },
            "name" : "grid",
            "pbrMetallicRoughness" : {
                "baseColorTexture" : {
                    "index" : 1
                },
                "metallicFactor" : 0,
                "roughnessFactor" : 0.9
            }
        },
        {
            "doubleSided" : true,
            "extensions" : {
                "KHR_materials_unlit" : {}
            },
            "name" : "Cube",
            "pbrMetallicRoughness" : {
                "baseColorTexture" : {
                    "index" : 2
                },
                "metallicFactor" : 0,
                "roughnessFactor" : 0.9
            }
        },
        {
            "doubleSided" : true,
            "extensions" : {
                "KHR_materials_unlit" : {}
            },
            "name" : "Hair",
            "pbrMetallicRoughness" : {
                "baseColorTexture" : {
                    "index" : 3
                },
                "metallicFactor" : 0,
                "roughnessFactor" : 0.9
            }
        },
        {
            "doubleSided" : true,
            "extensions" : {
                "KHR_materials_unlit" : {}
            },
            "name" : "Face",
            "pbrMetallicRoughness" : {
                "baseColorTexture" : {
                    "index" : 4
                },
                "metallicFactor" : 0,
                "roughnessFactor" : 0.9
            }
        },
        {
            "doubleSided" : true,
            "extensions" : {
                "KHR_materials_unlit" : {}
            },
            "name" : "Body",
            "pbrMetallicRoughness" : {
                "baseColorTexture" : {
                    "index" : 5
                },
                "metallicFactor" : 0,
                "roughnessFactor" : 0.9
            }
        }
    ],
    "meshes" : [
        {
            "name" : "Plane.001",
            "primitives" : [
                {
                    "attributes" : {
                        "POSITION" : 0,
                        "NORMAL" : 1,
                        "TEXCOORD_0" : 2
                    },
                    "indices" : 3,
                    "material" : 0
                }
            ]
        },
        {
            "name" : "Plane",
            "primitives" : [
                {
                    "attributes" : {
                        "POSITION" : 4,
                        "NORMAL" : 5,
                        "TEXCOORD_0" : 6
                    },
                    "indices" : 7,
                    "material" : 1
                }
            ]
        },
        {
            "name" : "Cube",
            "primitives" : [
                {
                    "attributes" : {
                        "POSITION" : 8,
                        "NORMAL" : 9,
                        "TEXCOORD_0" : 10
                    },
                    "indices" : 11,
                    "material" : 2
                }
            ]
        },
        {
            "name" : "Cube.002",
            "primitives" : [
                {
                    "attributes" : {
                        "POSITION" : 12,
                        "NORMAL" : 13,
                        "TEXCOORD_0" : 14
                    },
                    "indices" : 15,
                    "material" : 3
                },
                {
                    "attributes" : {
                        "POSITION" : 16,
                        "NORMAL" : 17,
                        "TEXCOORD_0" : 18
                    },
                    "indices" : 19,
                    "material" : 4
                },
                {
                    "attributes" : {
                        "POSITION" : 20,
                        "NORMAL" : 21,
                        "TEXCOORD_0" : 22
                    },
                    "indices" : 23,
                    "material" : 5
                }
            ]
        }
    ],
    "textures" : [
        {
            "sampler" : 0,
            "source" : 0
        },
        {
            "sampler" : 0,
            "source" : 1
        },
        {
            "sampler" : 0,
            "source" : 2
        },
        {
            "sampler" : 0,
            "source" : 3
        },
        {
            "sampler" : 0,
            "source" : 4
        },
        {
            "sampler" : 0,
            "source" : 5
        }
    ],
    "images" : [
        {
            "bufferView" : 4,
            "mimeType" : "image/png",
            "name" : "item"
        },
        {
            "bufferView" : 9,
            "mimeType" : "image/png",
            "name" : "gridline2"
        },
        {
            "bufferView" : 14,
            "mimeType" : "image/png",
            "name" : "Cube"
        },
        {
            "bufferView" : 19,
            "mimeType" : "image/png",
            "name" : "BlenderChan-Hair"
        },
        {
            "bufferView" : 24,
            "mimeType" : "image/png",
            "name" : "BlenderChan-Face"
        },
        {
            "bufferView" : 29,
            "mimeType" : "image/png",
            "name" : "BlenderChan-Body"
        }
    ],
    "accessors" : [
        {
            "bufferView" : 0,
            "componentType" : 5126,
            "count" : 2154,
            "max" : [
                8.549445152282715,
                -1.1772355534844792e-08,
                1.0194368362426758
            ],
            "min" : [
                -0.6324939727783203,
                -5.884285926818848,
                -1.0760397911071777
            ],
            "type" : "VEC3"
        },
        {
            "bufferView" : 1,
            "componentType" : 5126,
            "count" : 2154,
            "type" : "VEC3"
        },
        {
            "bufferView" : 2,
            "componentType" : 5126,
            "count" : 2154,
            "type" : "VEC2"
        },
        {
            "bufferView" : 3,
            "componentType" : 5123,
            "count" : 3144,
            "type" : "SCALAR"
        },
        {
            "bufferView" : 5,
            "componentType" : 5126,
            "count" : 4,
            "max" : [
                1,
                0,
                1
            ],
            "min" : [
                -1,
                0,
                -1
            ],
            "type" : "VEC3"
        },
        {
            "bufferView" : 6,
            "componentType" : 5126,
            "count" : 4,
            "type" : "VEC3"
        },
        {
            "bufferView" : 7,
            "componentType" : 5126,
            "count" : 4,
            "type" : "VEC2"
        },
        {
            "bufferView" : 8,
            "componentType" : 5123,
            "count" : 6,
            "type" : "SCALAR"
        },
        {
            "bufferView" : 10,
            "componentType" : 5126,
            "count" : 24,
            "max" : [
                1,
                1,
                1
            ],
            "min" : [
                -1,
                -1,
                -1
            ],
            "type" : "VEC3"
        },
        {
            "bufferView" : 11,
            "componentType" : 5126,
            "count" : 24,
            "type" : "VEC3"
        },
        {
            "bufferView" : 12,
            "componentType" : 5126,
            "count" : 24,
            "type" : "VEC2"
        },
        {
            "bufferView" : 13,
            "componentType" : 5123,
            "count" : 36,
            "type" : "SCALAR"
        },
        {
            "bufferView" : 15,
            "componentType" : 5126,
            "count" : 1899,
            "max" : [
                0.43016517162323,
                1.4654791355133057,
                0.7394174337387085
            ],
            "min" : [
                -0.46689802408218384,
                0.386103093624115,
                -0.21221524477005005
            ],
            "type" : "VEC3"
        },
        {
            "bufferView" : 16,
            "componentType" : 5126,
            "count" : 1899,
            "type" : "VEC3"
        },
        {
            "bufferView" : 17,
            "componentType" : 5126,
            "count" : 1899,
            "type" : "VEC2"
        },
        {
            "bufferView" : 18,
            "componentType" : 5123,
            "count" : 9120,
            "type" : "SCALAR"
        },
        {
            "bufferView" : 20,
            "componentType" : 5126,
            "count" : 4135,
            "max" : [
                0.27226412296295166,
                1.2751327753067017,
                0.7209232449531555
            ],
            "min" : [
                -0.15053489804267883,
                0.7974029183387756,
                0.42244115471839905
            ],
            "type" : "VEC3"
        },
        {
            "bufferView" : 21,
            "componentType" : 5126,
            "count" : 4135,
            "type" : "VEC3"
        },
        {
            "bufferView" : 22,
            "componentType" : 5126,
            "count" : 4135,
            "type" : "VEC2"
        },
        {
            "bufferView" : 23,
            "componentType" : 5123,
            "count" : 22476,
            "type" : "SCALAR"
        },
        {
            "bufferView" : 25,
            "componentType" : 5126,
            "count" : 4787,
            "max" : [
                0.3703550100326538,
                1.0697505474090576,
                0.9179795980453491
            ],
            "min" : [
                -0.33108270168304443,
                -0.04488825798034668,
                -0.5857852101325989
            ],
            "type" : "VEC3"
        },
        {
            "bufferView" : 26,
            "componentType" : 5126,
            "count" : 4787,
            "type" : "VEC3"
        },
        {
            "bufferView" : 27,
            "componentType" : 5126,
            "count" : 4787,
            "type" : "VEC2"
        },
        {
            "bufferView" : 28,
            "componentType" : 5123,
            "count" : 24912,
            "type" : "SCALAR"
        }
    ],
    "bufferViews" : [
        {
            "buffer" : 0,
            "byteLength" : 25848,
            "byteOffset" : 0
        },
        {
            "buffer" : 0,
            "byteLength" : 25848,
            "byteOffset" : 25848
        },
        {
            "buffer" : 0,
            "byteLength" : 17232,
            "byteOffset" : 51696
        },
        {
            "buffer" : 0,
            "byteLength" : 6288,
            "byteOffset" : 68928
        },
        {
            "buffer" : 0,
            "byteLength" : 139725,
            "byteOffset" : 75216
        },
        {
            "buffer" : 0,
            "byteLength" : 48,
            "byteOffset" : 214944
        },
        {
            "buffer" : 0,
            "byteLength" : 48,
            "byteOffset" : 214992
        },
        {
            "buffer" : 0,
            "byteLength" : 32,
            "byteOffset" : 215040
        },
        {
            "buffer" : 0,
            "byteLength" : 12,
            "byteOffset" : 215072
        },
        {
            "buffer" : 0,
            "byteLength" : 31956,
            "byteOffset" : 215084
        },
        {
            "buffer" : 0,
            "byteLength" : 288,
            "byteOffset" : 247040
        },
        {
            "buffer" : 0,
            "byteLength" : 288,
            "byteOffset" : 247328
        },
        {
            "buffer" : 0,
            "byteLength" : 192,
            "byteOffset" : 247616
        },
        {
            "buffer" : 0,
            "byteLength" : 72,
            "byteOffset" : 247808
        },
        {
            "buffer" : 0,
            "byteLength" : 3922,
            "byteOffset" : 247880
        },
        {
            "buffer" : 0,
            "byteLength" : 22788,
            "byteOffset" : 251804
        },
        {
            "buffer" : 0,
            "byteLength" : 22788,
            "byteOffset" : 274592
        },
        {
            "buffer" : 0,
            "byteLength" : 15192,
            "byteOffset" : 297380
        },
        {
            "buffer" : 0,
            "byteLength" : 18240,
            "byteOffset" : 312572
        },
        {
            "buffer" : 0,
            "byteLength" : 308462,
            "byteOffset" : 330812
        },
        {
            "buffer" : 0,
            "byteLength" : 49620,
            "byteOffset" : 639276
        },
        {
            "buffer" : 0,
            "byteLength" : 49620,
            "byteOffset" : 688896
        },
        {
            "buffer" : 0,
            "byteLength" : 33080,
            "byteOffset" : 738516
        },
        {
            "buffer" : 0,
            "byteLength" : 44952,
            "byteOffset" : 771596
        },
        {
            "buffer" : 0,
            "byteLength" : 345226,
            "byteOffset" : 816548
        },
        {
            "buffer" : 0,
            "byteLength" : 57444,
            "byteOffset" : 1161776
        },
        {
            "buffer" : 0,
            "byteLength" : 57444,
            "byteOffset" : 1219220
        },
        {
            "buffer" : 0,
            "byteLength" : 38296,
            "byteOffset" : 1276664
        },
        {
            "buffer" : 0,
            "byteLength" : 49824,
            "byteOffset" : 1314960
        },
        {
            "buffer" : 0,
            "byteLength" : 223823,
            "byteOffset" : 1364784
        }
    ],
    "samplers" : [
        {
            "magFilter" : 9729,
            "minFilter" : 9987
        }
    ],
    "buffers" : [
        {
            "byteLength" : 1588608,
            "uri" : "data:application/octet-stream;base64,"
        }
    ]
}
